<?xml version="1.0" encoding="utf-8"?>
<!-- Generator: Adobe Illustrator 25.4.1, SVG Export Plug-In . SVG Version: 6.00 Build 0)  -->
<svg version="1.1" id="Layer_1" xmlns="http://www.w3.org/2000/svg" xmlns:xlink="http://www.w3.org/1999/xlink" x="0px" y="0px"
	 viewBox="0 0 170 43.59" style="enable-background:new 0 0 170 43.59;" xml:space="preserve">
<style type="text/css">
	.st0{fill:#C41F3E;}
	.st1{fill:#8B1D41;}
</style>
<g>
	<path class="st0" d="M43.03,41.05h-8.91V2.49h8.91V35.5V41.05z M72.12,20.72c3.42,0.97,7.43,3.2,7.43,9.32
		c0,7.1-5.24,11.01-14.75,11.01H51.29V2.49h13.79c8.5,0,12.99,3.41,12.99,9.87c0,4.67-3.04,7.07-5.96,8.26V20.72z M60.21,17.87h3.5
		c3.41,0,5.82-1.34,5.82-4.43c0-2.06-1.26-4.52-5.6-4.52h-3.73V17.87z M64.05,34.3c3.87,0,6.45-1.52,6.45-4.88
		c0-3.55-2.56-5.1-6.56-5.1h-3.73v9.98H64.05z M109.08,32.05c-0.93,0.63-2.62,2.01-6.1,2.01c-6.17,0-10.27-4.73-10.27-12.26
		c0-7.65,4.09-12.32,10.27-12.32c2.77,0,4.25,0.79,5.67,1.7l4.61-6.27c-2.87-1.92-5.68-3.1-11.13-3.1
		c-11.83,0-18.62,8.02-18.62,19.99c0,12.28,7.07,19.93,18.62,19.93c7.37,0,10.23-2.53,11.55-3.43L109.08,32.05z M25.47,32.11
		c-0.93,0.63-2.52,1.95-6,1.95c-6.17,0-10.27-4.73-10.27-12.26c0-7.65,4.09-12.32,10.27-12.32c2.77,0,4.25,0.79,5.67,1.7l4.61-6.27
		c-2.87-1.92-5.68-3.1-11.13-3.1C6.78,1.81,0,9.82,0,21.8c0,12.28,7.07,19.93,18.62,19.93c7.37,0,10.23-2.53,11.54-3.43L25.47,32.11
		z"/>
	<g>
		<path class="st0" d="M155.19,1.67C154.51,0.76,153.47,0,151.75,0h-14.33c1.47,0,2.62,0.55,3.49,1.71
			c1.44,1.93,14.77,20.08,14.77,20.08s-13.33,18.15-14.77,20.08c-0.87,1.16-2.01,1.71-3.49,1.71h14.33c1.72,0,2.76-0.76,3.45-1.67
			L170,21.8L155.19,1.67z"/>
		<path class="st1" d="M144.58,6.7L144.58,6.7c-1.81-2.47-3.25-4.41-3.68-4.99C140.03,0.55,138.89,0,137.41,0c0,0,0,0,0,0
			c-1.72,0-2.77,0.76-3.45,1.67L119.15,21.8l14.81,20.13c0.68,0.91,1.73,1.67,3.45,1.67c0,0,0,0,0,0c1.47,0,2.62-0.55,3.49-1.71
			c0.43-0.58,3.68-4.99,3.68-4.99l0,0L133.49,21.8L144.58,6.7z"/>
	</g>
</g>
</svg>
